<?xml version="1.0" encoding="UTF-8" standalone="no"?>
<svg
   role="img"
   height="15.24cm"
   width="15.24cm"
   aria-hidden="true"
   viewBox="0 0 576 576"
   data-encore-id="icon"
   class="Svg-sc-ytk21e-0 haNxPq"
   version="1.1"
   id="svg4"
   sodipodi:docname="spoti-biblioteca-solid.svg"
   inkscape:version="1.1.2 (b8e25be833, 2022-02-05)"
   xmlns:inkscape="http://www.inkscape.org/namespaces/inkscape"
   xmlns:sodipodi="http://sodipodi.sourceforge.net/DTD/sodipodi-0.dtd"
   xmlns="http://www.w3.org/2000/svg"
   xmlns:svg="http://www.w3.org/2000/svg">
  <defs
     id="defs8" />
  <sodipodi:namedview
     id="namedview6"
     pagecolor="#505050"
     bordercolor="#ffffff"
     borderopacity="1"
     inkscape:pageshadow="0"
     inkscape:pageopacity="0"
     inkscape:pagecheckerboard="1"
     showgrid="false"
     inkscape:zoom="0.76511164"
     inkscape:cx="311.71922"
     inkscape:cy="452.22159"
     inkscape:window-width="1920"
     inkscape:window-height="1017"
     inkscape:window-x="-8"
     inkscape:window-y="-8"
     inkscape:window-maximized="1"
     inkscape:current-layer="svg4"
     units="cm"
     width="15.24cm"
     inkscape:document-units="cm" />
  <g
     id="g927"
     transform="scale(24)">
    <path
       d="M 3,22 A 1,1 0 0 1 2,21 V 3 A 1,1 0 0 1 4,3 V 21 A 1,1 0 0 1 3,22 Z M 15.5,2.134 A 1,1 0 0 0 14,3 v 18 a 1,1 0 0 0 1,1 h 6 a 1,1 0 0 0 1,-1 V 6.464 A 1,1 0 0 0 21.5,5.598 Z M 9,2 A 1,1 0 0 0 8,3 v 18 a 1,1 0 1 0 2,0 V 3 A 1,1 0 0 0 9,2 Z"
       id="path2" />
  </g>
</svg>
