<?xml version="1.0" encoding="UTF-8" standalone="no"?>
<svg
   viewBox="0 0 576 576.00001"
   version="1.1"
   id="svg4"
   sodipodi:docname="house-solid.svg"
   width="15.24cm"
   height="15.24cm"
   inkscape:version="1.1.2 (b8e25be833, 2022-02-05)"
   xmlns:inkscape="http://www.inkscape.org/namespaces/inkscape"
   xmlns:sodipodi="http://sodipodi.sourceforge.net/DTD/sodipodi-0.dtd"
   xmlns="http://www.w3.org/2000/svg"
   xmlns:svg="http://www.w3.org/2000/svg">
  <defs
     id="defs8" />
  <sodipodi:namedview
     id="namedview6"
     pagecolor="#505050"
     bordercolor="#ffffff"
     borderopacity="1"
     inkscape:pageshadow="0"
     inkscape:pageopacity="0"
     inkscape:pagecheckerboard="1"
     showgrid="false"
     units="cm"
     width="15.24cm"
     inkscape:zoom="0.81152344"
     inkscape:cx="191.61492"
     inkscape:cy="268.63056"
     inkscape:window-width="1920"
     inkscape:window-height="1017"
     inkscape:window-x="-8"
     inkscape:window-y="-8"
     inkscape:window-maximized="1"
     inkscape:current-layer="svg4"
     inkscape:document-units="cm" />
  <!--! Font Awesome Pro 6.4.2 by @fontawesome - https://fontawesome.com License - https://fontawesome.com/license (Commercial License) Copyright 2023 Fonticons, Inc. -->
  <path
     d="m 300.50373,79.285806 a 23.722838,23.722838 0 0 0 -23.72284,0 L 98.859606,182.0057 V 476.71452 H 205.61237 V 334.37748 a 23.722838,23.722838 0 0 1 23.72284,-23.72282 h 118.61418 a 23.722838,23.722838 0 0 1 23.72284,23.72282 V 476.71452 H 478.42501 V 182.0057 Z M 253.05805,38.19785 a 71.168515,71.168515 0 0 1 71.16852,0 l 177.92128,102.7199 a 47.445677,47.445677 0 0 1 23.72284,41.08795 V 500.43736 A 23.722838,23.722838 0 0 1 502.14785,524.1602 H 347.94939 A 23.722838,23.722838 0 0 1 324.22657,500.43736 V 358.10032 H 253.05805 V 500.43736 A 23.722838,23.722838 0 0 1 229.33521,524.1602 H 75.136766 A 23.722838,23.722838 0 0 1 51.413926,500.43736 V 182.0057 a 47.445677,47.445677 0 0 1 23.72284,-41.08795 z"
     id="path2"
     style="stroke-width:23.7229" />
  <path
     style="fill:#000000;fill-opacity:1;stroke:#000000;stroke-width:1px;stroke-linecap:butt;stroke-linejoin:miter;stroke-opacity:1"
     d="M 72.98235,476.71452 74.2146,182.0057 284.64982,50.522262 512.61612,184.83754 V 492.90012 H 351.19133 V 338.86883 H 227.9663 V 501.52587 H 80.09627 Z"
     id="path854"
     sodipodi:nodetypes="ccccccccccc" />
</svg>
