<?xml version="1.0" encoding="UTF-8" standalone="no"?>
<svg
   role="img"
   height="15.24cm"
   width="15.24cm"
   aria-hidden="true"
   viewBox="0 0 576 576"
   data-encore-id="icon"
   class="Svg-sc-ytk21e-0 haNxPq"
   version="1.1"
   id="svg4"
   sodipodi:docname="spoti-biblioteca-regular.svg"
   inkscape:version="1.1.2 (b8e25be833, 2022-02-05)"
   xmlns:inkscape="http://www.inkscape.org/namespaces/inkscape"
   xmlns:sodipodi="http://sodipodi.sourceforge.net/DTD/sodipodi-0.dtd"
   xmlns="http://www.w3.org/2000/svg"
   xmlns:svg="http://www.w3.org/2000/svg">
  <defs
     id="defs8" />
  <sodipodi:namedview
     id="namedview6"
     pagecolor="#505050"
     bordercolor="#ffffff"
     borderopacity="1"
     inkscape:pageshadow="0"
     inkscape:pageopacity="0"
     inkscape:pagecheckerboard="1"
     showgrid="false"
     inkscape:zoom="1"
     inkscape:cx="213.5"
     inkscape:cy="290"
     inkscape:window-width="1920"
     inkscape:window-height="1017"
     inkscape:window-x="-8"
     inkscape:window-y="-8"
     inkscape:window-maximized="1"
     inkscape:current-layer="svg4"
     units="cm"
     width="15.24cm"
     inkscape:document-units="cm" />
  <g
     id="g927"
     transform="matrix(24.011504,0,0,24.011504,-0.17977739,-0.08988869)">
    <path
       id="path2215"
       d="m 8.999794,2.0009363 a 1,1 0 0 0 -1,1 V 21.000936 a 1,1 0 0 0 2,0 V 3.0009363 a 1,1 0 0 0 -1,-1 z m 6.105469,0.00586 a 1,1 0 0 0 -1.105469,0.99414 V 21.000936 a 1,1 0 0 0 1,1 h 6 a 1,1 0 0 0 1,-1 V 6.4657801 a 1,1 0 0 0 -0.5,-0.8671876 l -6,-3.4628906 A 1,1 0 0 0 15.105263,2.0067963 Z M 2.777138,2.0263269 A 1,1 0 0 0 1.999794,3.0009363 V 21.000936 a 1,1 0 0 0 1,1 1,1 0 0 0 1,-1 V 3.0009363 A 1,1 0 0 0 2.777138,2.0263269 Z M 15.999794,4.7196863 20.00956,7.0380457 V 19.99703 H 15.999794 V 7.0380457 Z" />
  </g>
</svg>
