<?xml version="1.0" encoding="UTF-8" standalone="no"?>
<!-- Created with Inkscape (http://www.inkscape.org/) -->

<svg
   width="14in"
   height="8.5in"
   viewBox="0 0 355.6 215.9"
   version="1.1"
   id="svg5"
   inkscape:version="1.1.2 (b8e25be833, 2022-02-05)"
   sodipodi:docname="Caam_Drawing.svg"
   inkscape:export-filename="C:\Users\hp\Documents\DGarcia2105\psicologia\Banners\banner_caam.png"
   inkscape:export-xdpi="161.25"
   inkscape:export-ydpi="161.25"
   xmlns:inkscape="http://www.inkscape.org/namespaces/inkscape"
   xmlns:sodipodi="http://sodipodi.sourceforge.net/DTD/sodipodi-0.dtd"
   xmlns="http://www.w3.org/2000/svg"
   xmlns:svg="http://www.w3.org/2000/svg">
  <sodipodi:namedview
     id="namedview7"
     pagecolor="#ffffff"
     bordercolor="#666666"
     borderopacity="1.0"
     inkscape:pageshadow="2"
     inkscape:pageopacity="0.0"
     inkscape:pagecheckerboard="0"
     inkscape:document-units="mm"
     showgrid="false"
     units="in"
     inkscape:zoom="0.50898197"
     inkscape:cx="729.88833"
     inkscape:cy="397.85299"
     inkscape:window-width="1920"
     inkscape:window-height="1001"
     inkscape:window-x="-9"
     inkscape:window-y="-9"
     inkscape:window-maximized="1"
     inkscape:current-layer="g35528" />
  <defs
     id="defs2" />
  <g
     inkscape:label="Layer 1"
     inkscape:groupmode="layer"
     id="layer1">
    <g
       id="g1055"
       transform="translate(-21.386922,-72.282679)">
      <g
         id="g961"
         transform="translate(33.081627,69.022243)">
        <g
           id="g105675"
           transform="translate(-74.88052,7.78332)"
           style="display:inline">
          <path
             id="path105663"
             style="display:inline;fill:#8fc740;stroke-width:1.0885;stroke-linecap:round;stroke-linejoin:round"
             d="m 760.67578,316.94336 c -5.35494,9.18251 -8.1901,19.61627 -8.21875,30.24609 -1.2e-4,33.33701 27.02432,60.36233 60.36133,60.36328 1.2674,-0.0265 2.53365,-0.0929 3.79687,-0.19921 6.27675,39.12355 40.01874,67.90896 79.64258,67.94336 7.14888,-0.002 14.2658,-0.95383 21.16407,-2.83008 V 316.94336 h -41.0879 a 38.238146,38.238146 0 0 1 1.34961,9.99219 38.238146,38.238146 0 0 1 -38.23632,38.23828 38.238146,38.238146 0 0 1 -38.23829,-38.23828 38.238146,38.238146 0 0 1 1.50196,-9.99219 z"
             transform="scale(0.26458333)" />
          <g
             id="g105673"
             transform="rotate(-90,246.03561,82.149252)"
             style="fill:#8fc740;fill-opacity:1">
            <g
               id="g105671"
               style="fill:#8fc740;fill-opacity:1">
              <g
                 id="g105669"
                 style="fill:#8fc740;fill-opacity:1">
                <rect
                   style="fill:#8fc740;fill-opacity:1;stroke:none;stroke-width:0.160075;stroke-linecap:round;stroke-linejoin:round;stroke-miterlimit:4;stroke-dasharray:none;stroke-opacity:1"
                   id="rect105667"
                   width="5.2618842"
                   height="17.106085"
                   x="221.095"
                   y="73.289841" />
              </g>
            </g>
          </g>
          <g
             id="g108487">
            <circle
               style="display:inline;fill:#8fc740;fill-opacity:1;stroke:none;stroke-width:0.116291;stroke-linecap:round;stroke-linejoin:round;stroke-miterlimit:4;stroke-dasharray:none;stroke-opacity:1"
               id="circle108478"
               cx="-104.45892"
               cy="250.80052"
               r="4.9853206"
               transform="rotate(-90)" />
            <rect
               style="display:inline;fill:#8fc740;fill-opacity:1;stroke:none;stroke-width:0.160075;stroke-linecap:round;stroke-linejoin:round;stroke-miterlimit:4;stroke-dasharray:none;stroke-opacity:1"
               id="rect108480"
               width="5.2618842"
               height="17.106085"
               x="-107.08985"
               y="237.58844"
               transform="rotate(-90)" />
            <path
               id="path108476"
               style="display:inline;fill:#8fc740;stroke-width:1.0885;stroke-linecap:round;stroke-linejoin:round"
               d="m 760.67578,316.94336 c -5.35494,9.18251 -8.1901,19.61627 -8.21875,30.24609 -1.2e-4,33.33701 27.02432,60.36233 60.36133,60.36328 1.2674,-0.0265 2.53365,-0.0929 3.79687,-0.19921 6.27675,39.12355 40.01874,67.90896 79.64258,67.94336 7.14888,-0.002 14.2658,-0.95383 21.16407,-2.83008 V 316.94336 h -41.0879 a 38.238146,38.238146 0 0 1 1.34961,9.99219 38.238146,38.238146 0 0 1 -38.23632,38.23828 38.238146,38.238146 0 0 1 -38.23829,-38.23828 38.238146,38.238146 0 0 1 1.50196,-9.99219 z"
               transform="scale(0.26458333)" />
          </g>
        </g>
        <g
           id="g105687"
           style="display:inline;fill:#00a89d;fill-opacity:1"
           transform="translate(-74.88052,7.78332)">
          <path
             id="path105677"
             style="display:inline;fill:#00a89d;fill-opacity:1;stroke-width:1.0885;stroke-linecap:round;stroke-linejoin:round"
             d="m 937.31055,316.94336 v 40.73437 c 2.95799,-0.7292 5.99253,-1.10229 9.03906,-1.11132 21.11845,-7e-5 38.23835,17.11983 38.23828,38.23828 7e-5,21.11845 -17.11983,38.23835 -38.23828,38.23828 -3.04653,-0.009 -6.08107,-0.38213 -9.03906,-1.11133 v 40.53516 c 6.89824,1.87623 14.01516,2.82807 21.16406,2.83008 39.62381,-0.0344 73.36579,-28.81981 79.64259,-67.94336 1.2632,0.1062 2.5295,0.17276 3.7969,0.19921 33.337,-9.4e-4 60.3614,-27.02636 60.3613,-60.36328 -0.029,-10.62982 -2.8638,-21.06358 -8.2188,-30.24609 -58.5892,0.12946 -100.52722,0 -156.74605,0 z"
             transform="scale(0.26458333)"
             sodipodi:nodetypes="cccsccccccccc" />
          <g
             id="g105685"
             transform="matrix(1,0,0,-1,91.622986,154.84738)"
             style="fill:#00a89d;fill-opacity:1">
            <g
               id="g105683"
               style="fill:#00a89d;fill-opacity:1">
              <circle
                 style="display:inline;fill:#00a89d;fill-opacity:1;stroke:none;stroke-width:0.116291;stroke-linecap:round;stroke-linejoin:round;stroke-miterlimit:4;stroke-dasharray:none;stroke-opacity:1"
                 id="circle105679"
                 cx="177.18892"
                 cy="79.004456"
                 r="4.9853206" />
              <rect
                 style="display:inline;fill:#00a89d;fill-opacity:1;stroke:none;stroke-width:0.160075;stroke-linecap:round;stroke-linejoin:round;stroke-miterlimit:4;stroke-dasharray:none;stroke-opacity:1"
                 id="rect105681"
                 width="5.2618842"
                 height="17.106085"
                 x="174.55798"
                 y="65.792374" />
            </g>
          </g>
        </g>
        <g
           id="g105701"
           transform="translate(-74.88052,7.78332)"
           style="display:inline">
          <g
             id="g105697"
             transform="translate(-1.6224365)"
             style="fill:#d50326;fill-opacity:1">
            <g
               id="g105695"
               style="fill:#d50326;fill-opacity:1">
              <g
                 id="g105693"
                 style="fill:#d50326;fill-opacity:1">
                <circle
                   style="display:inline;fill:#d50326;fill-opacity:1;stroke:none;stroke-width:0.116291;stroke-linecap:round;stroke-linejoin:round;stroke-miterlimit:4;stroke-dasharray:none;stroke-opacity:1"
                   id="circle105689"
                   cx="223.72594"
                   cy="86.501923"
                   r="4.9853206" />
                <rect
                   style="fill:#d50326;fill-opacity:1;stroke:none;stroke-width:0.160075;stroke-linecap:round;stroke-linejoin:round;stroke-miterlimit:4;stroke-dasharray:none;stroke-opacity:1"
                   id="rect105691"
                   width="5.2618842"
                   height="17.106085"
                   x="221.095"
                   y="73.289841" />
              </g>
            </g>
          </g>
          <path
             id="path105699"
             style="display:inline;fill:#d50326;fill-opacity:1;stroke-width:0.287999;stroke-linecap:round;stroke-linejoin:round"
             d="m 242.88223,78.481379 v -10.77763 c -0.78263,0.192932 -1.58552,0.291642 -2.39158,0.29403 -5.58759,1.9e-5 -10.11723,-4.529621 -10.11721,-10.11721 -2e-5,-5.587589 4.52962,-10.117229 10.11721,-10.11721 0.80606,0.0024 1.60895,0.101104 2.39158,0.294039 V 37.332471 c -1.82516,-0.49642 -3.70817,-0.748261 -5.59965,-0.748792 -10.4838,0.0091 -19.41137,7.625241 -21.07211,17.97668 -0.33422,-0.0281 -0.66926,-0.0457 -1.00459,-0.0527 -8.82042,2.5e-4 -15.97062,7.15073 -15.9706,15.97112 0.008,2.81247 0.75772,5.57307 2.17456,8.00261 15.50171,-0.03425 26.59783,3e-6 41.47239,-10e-6 z"
             sodipodi:nodetypes="cccsccccccccc" />
        </g>
        <g
           id="g108539"
           transform="rotate(180,207.99472,85.12383)"
           style="display:inline;fill:#f4b320;fill-opacity:1">
          <path
             id="path108519"
             style="display:inline;fill:#f4b320;fill-opacity:1;stroke-width:1.0885;stroke-linecap:round;stroke-linejoin:round"
             d="m 760.67578,316.94336 c -5.35494,9.18251 -8.1901,19.61627 -8.21875,30.24609 -1.2e-4,33.33701 27.02432,60.36233 60.36133,60.36328 1.2674,-0.0265 2.53365,-0.0929 3.79687,-0.19921 6.27675,39.12355 40.01874,67.90896 79.64258,67.94336 7.14888,-0.002 14.2658,-0.95383 21.16407,-2.83008 V 316.94336 h -41.0879 a 38.238146,38.238146 0 0 1 1.34961,9.99219 38.238146,38.238146 0 0 1 -38.23632,38.23828 38.238146,38.238146 0 0 1 -38.23829,-38.23828 38.238146,38.238146 0 0 1 1.50196,-9.99219 z"
             transform="scale(0.26458333)" />
          <g
             id="g108529"
             transform="rotate(-90,246.03561,82.149252)"
             style="fill:#f4b320;fill-opacity:1">
            <g
               id="g108527"
               style="fill:#f4b320;fill-opacity:1">
              <g
                 id="g108525"
                 style="fill:#f4b320;fill-opacity:1">
                <rect
                   style="fill:#f4b320;fill-opacity:1;stroke:none;stroke-width:0.160075;stroke-linecap:round;stroke-linejoin:round;stroke-miterlimit:4;stroke-dasharray:none;stroke-opacity:1"
                   id="rect108523"
                   width="5.2618842"
                   height="17.106085"
                   x="221.095"
                   y="73.289841" />
              </g>
            </g>
          </g>
          <g
             id="g108537"
             style="fill:#f4b320;fill-opacity:1">
            <circle
               style="display:inline;fill:#f4b320;fill-opacity:1;stroke:none;stroke-width:0.116291;stroke-linecap:round;stroke-linejoin:round;stroke-miterlimit:4;stroke-dasharray:none;stroke-opacity:1"
               id="circle108531"
               cx="-104.45892"
               cy="250.76862"
               r="4.9853206"
               transform="rotate(-90)" />
            <rect
               style="display:inline;fill:#f4b320;fill-opacity:1;stroke:none;stroke-width:0.160075;stroke-linecap:round;stroke-linejoin:round;stroke-miterlimit:4;stroke-dasharray:none;stroke-opacity:1"
               id="rect108533"
               width="5.2618842"
               height="17.106085"
               x="-107.08985"
               y="237.55653"
               transform="rotate(-90)" />
            <path
               id="path108535"
               style="display:inline;fill:#f4b320;fill-opacity:1;stroke-width:1.0885;stroke-linecap:round;stroke-linejoin:round"
               d="m 760.67578,316.94336 c -5.35494,9.18251 -8.1901,19.61627 -8.21875,30.24609 -1.2e-4,33.33701 27.02432,60.36233 60.36133,60.36328 1.2674,-0.0265 2.53365,-0.0929 3.79687,-0.19921 6.27675,39.12355 40.01874,67.90896 79.64258,67.94336 7.14888,-0.002 14.2658,-0.95383 21.16407,-2.83008 V 316.94336 h -41.0879 a 38.238146,38.238146 0 0 1 1.34961,9.99219 38.238146,38.238146 0 0 1 -38.23632,38.23828 38.238146,38.238146 0 0 1 -38.23829,-38.23828 38.238146,38.238146 0 0 1 1.50196,-9.99219 z"
               transform="scale(0.26458333)" />
          </g>
        </g>
      </g>
      <path
         style="display:inline;fill:#ceccc6;fill-opacity:1;stroke-width:0.291753"
         d="m 197.30305,233.3483 c -6.32704,-0.60904 -12.90249,-2.02888 -18.57246,-4.01038 -4.37696,-1.52965 -5.00097,-1.79076 -8.73201,-3.65369 -5.84993,-2.92093 -10.20108,-5.76658 -15.04587,-9.84014 -6.91253,-5.8121 -11.50189,-11.21439 -16.70083,-19.65896 -1.21886,-1.97971 -4.55918,-8.93029 -5.32814,-11.08663 -3.81688,-10.70389 -5.13983,-18.55021 -4.8791,-28.9389 0.16733,-6.66659 0.46246,-9.20904 1.70369,-14.67827 1.029,-4.53423 1.9231,-7.51956 3.32036,-11.08664 6.84821,-17.48315 19.98719,-31.81908 36.75297,-40.10125 10.35991,-5.11772 20.1259,-7.57929 31.53071,-7.94752 9.38627,-0.30305 19.41472,1.26334 27.55984,4.30466 1.36396,0.50928 2.96917,1.10553 3.56714,1.32499 1.33659,0.49054 5.8493,2.6775 8.35852,4.05072 2.73456,1.49656 7.68765,4.88309 10.68528,7.30568 3.01082,2.43328 8.52063,8.00183 11.13488,11.25359 15.49803,19.27734 20.58656,45.53924 13.39185,69.1155 -2.64731,8.67493 -5.74038,14.89998 -11.45222,23.04853 -3.96379,5.6548 -11.43468,12.86486 -18.18019,17.54546 -13.9697,9.69332 -32.59488,14.64339 -49.11442,13.05325 z m 14.19769,-7.98732 c 10.63484,-1.24403 20.60442,-4.8804 29.39912,-10.72319 11.59093,-7.70057 19.76294,-17.54244 25.49622,-30.7063 1.70088,-3.90518 3.5995,-10.64359 4.43911,-15.7547 0.75586,-4.60129 0.75032,-16.23252 -0.0101,-20.56863 -2.62805,-14.99156 -8.99283,-27.51069 -19.14096,-37.64885 -10.75663,-10.74608 -24.50302,-17.5194 -39.40207,-19.41474 -4.47863,-0.56973 -11.8965,-0.63776 -16.19237,-0.14851 -15.83112,1.80301 -30.97025,9.29506 -41.63004,20.60191 -2.77533,2.94376 -3.39537,3.68506 -5.60845,6.70545 -9.58806,13.0855 -14.19012,28.92386 -13.04729,44.90355 0.28601,3.99943 1.16101,9.40011 2.08396,12.86366 0.90892,3.41059 3.22149,9.38137 4.98733,12.8769 8.41107,16.64953 22.73679,28.80789 40.52322,34.39253 8.89076,2.79155 18.76818,3.71276 28.10205,2.62092 z"
         id="path55617-8-6"
         inkscape:connector-curvature="0" />
    </g>
    <text
       xml:space="preserve"
       style="font-style:normal;font-weight:normal;font-size:10.5833px;line-height:1.25;font-family:sans-serif;fill:#00a89d;fill-opacity:1;stroke:none;stroke-width:0.264583"
       x="165.15186"
       y="178.50374"
       id="text13427"><tspan
         sodipodi:role="line"
         id="tspan13425"
         style="font-style:normal;font-variant:normal;font-weight:normal;font-stretch:normal;font-family:sans-serif;-inkscape-font-specification:sans-serif;fill:#00a89d;fill-opacity:1;stroke-width:0.264583"
         x="165.15186"
         y="178.50374">CAAM</tspan></text>
    <g
       id="g35528"
       transform="translate(45.225079,-62.899248)">
      <text
         xml:space="preserve"
         style="font-style:normal;font-weight:normal;font-size:6.51171px;line-height:1.25;font-family:sans-serif;display:inline;fill:#ceccc6;fill-opacity:1;stroke:none;stroke-width:0.488377"
         x="108.4059"
         y="264.93842"
         id="text22847-4"><tspan
           sodipodi:role="line"
           id="tspan22845-5"
           style="font-style:normal;font-variant:normal;font-weight:normal;font-stretch:normal;font-size:6.51171px;font-family:Calibri;-inkscape-font-specification:Calibri;fill:#ceccc6;fill-opacity:1;stroke-width:0.488377"
           x="108.4059"
           y="264.93842">Psic. María Martínez</tspan></text>
      <text
         xml:space="preserve"
         style="font-style:normal;font-weight:normal;font-size:11.7211px;line-height:1.25;font-family:sans-serif;display:inline;fill:#89867e;fill-opacity:1;stroke:none;stroke-width:0.488377;stroke-opacity:1"
         x="87.816154"
         y="256.61053"
         id="text23225-8"><tspan
           sodipodi:role="line"
           id="tspan23223-6"
           style="font-style:normal;font-variant:normal;font-weight:300;font-stretch:normal;font-size:11.7211px;font-family:Calibri;-inkscape-font-specification:'Calibri Light';fill:#89867e;fill-opacity:1;stroke:none;stroke-width:0.488377;stroke-opacity:1"
           x="87.816154"
           y="256.61053">Atención Psicologica</tspan></text>
    </g>
  </g>
</svg>
